/* XPM */
static char *_ed77b6073ba40c4837330e7c8cfa150eBV8D4qsv4yyRG2S[] = {
/* columns rows colors chars-per-pixel */
"64 64 251 2 ",
"   c #2A322E",
".  c #37342C",
"X  c #2D3537",
"o  c #343434",
"O  c #3B3533",
"+  c #3D3B35",
"@  c #3C3C3C",
"#  c #363938",
"$  c #302E31",
"%  c #483B2D",
"&  c #433C34",
"*  c #473B37",
"=  c #553E35",
"-  c #513E2F",
";  c #3E413B",
":  c #44423C",
">  c #4C433B",
",  c #4A4537",
"<  c #534335",
"1  c #5A4436",
"2  c #5C4A33",
"3  c #53443B",
"4  c #5C453C",
"5  c #544B3C",
"6  c #5B4B3C",
"7  c #534A35",
"8  c #5A513C",
"9  c #50432D",
"0  c #644B3C",
"q  c #67493A",
"w  c #64533B",
"e  c #6C533D",
"r  c #685739",
"t  c #75583C",
"y  c #714A39",
"u  c #78613B",
"i  c #3E3F42",
"p  c #433E43",
"a  c #3C4543",
"s  c #4B4642",
"d  c #494847",
"f  c #544B43",
"g  c #5D4C43",
"h  c #524D49",
"j  c #564743",
"k  c #565143",
"l  c #55524B",
"z  c #5C544C",
"x  c #5D5243",
"c  c #5C5452",
"v  c #5D5953",
"b  c #575656",
"n  c #594F50",
"m  c #624D42",
"M  c #6C4E42",
"N  c #684C47",
"B  c #734E44",
"V  c #655444",
"C  c #6C5244",
"Z  c #635B4B",
"A  c #6A5D4C",
"S  c #675749",
"D  c #725244",
"F  c #7A5544",
"G  c #7B5D43",
"H  c #775A4A",
"J  c #645B56",
"K  c #7D5F52",
"L  c #69614C",
"P  c #786347",
"I  c #65635C",
"U  c #6A645C",
"Y  c #6D6655",
"T  c #786956",
"R  c #7D7259",
"E  c #6A6562",
"W  c #696864",
"Q  c #756D68",
"!  c #79736A",
"~  c #7B7873",
"^  c #655F63",
"/  c #885A3D",
"(  c #87673C",
")  c #926D3E",
"_  c #97723E",
"`  c #835D4C",
"'  c #885947",
"]  c #955D4A",
"[  c #895E52",
"{  c #965C51",
"}  c #85614D",
"|  c #8A624D",
" . c #886643",
".. c #946847",
"X. c #997445",
"o. c #856252",
"O. c #8A6351",
"+. c #8E6953",
"@. c #866A58",
"#. c #946A55",
"$. c #946D5B",
"%. c #9A6E5B",
"&. c #966555",
"*. c #87775A",
"=. c #9C735C",
"-. c #977259",
";. c #8B714C",
":. c #A5664B",
">. c #AC7D45",
",. c #A67D4B",
"<. c #AA7E4B",
"1. c #A47945",
"2. c #B17F4B",
"3. c #A86955",
"4. c #B46C54",
"5. c #A2745C",
"6. c #A77954",
"7. c #BB725A",
"8. c #BE7B5C",
"9. c #B77657",
"0. c #B76F4A",
"q. c #887A65",
"w. c #9C7461",
"e. c #967B64",
"r. c #837C74",
"t. c #847C7A",
"y. c #956C62",
"u. c #A17563",
"i. c #A37864",
"p. c #BF7C67",
"a. c #C3765B",
"s. c #C47B5C",
"d. c #CA7C5D",
"f. c #C77A56",
"g. c #CB7759",
"h. c #C57B61",
"j. c #CA7D62",
"k. c #C57963",
"l. c #D07C62",
"z. c #7D8173",
"x. c #97855C",
"c. c #8A825E",
"v. c #AC8146",
"b. c #AC814D",
"n. c #A68246",
"m. c #B3844C",
"M. c #B6884B",
"N. c #AC8251",
"B. c #BC8C53",
"V. c #B58652",
"C. c #BE9056",
"Z. c #938263",
"A. c #998564",
"S. c #9C8A6A",
"D. c #998867",
"F. c #8C837A",
"G. c #888375",
"H. c #938A7E",
"J. c #998A7A",
"K. c #95907D",
"L. c #A4946D",
"P. c #AA976C",
"I. c #B59B6E",
"U. c #AC9A73",
"Y. c #AA9876",
"T. c #B49D74",
"R. c #B99E75",
"E. c #B49D7A",
"W. c #B79C78",
"Q. c #A38D6C",
"!. c #B8A16E",
"~. c #B4A175",
"^. c #BAA273",
"/. c #BAA27A",
"(. c #B9A579",
"). c #ADA275",
"_. c #C8855A",
"`. c #D6855D",
"'. c #C49355",
"]. c #CB9555",
"[. c #CB9956",
"{. c #C5935A",
"}. c #CA955B",
"|. c #CC9A5B",
" X c #C69B59",
".X c #D19B5C",
"XX c #D39959",
"oX c #CFA15E",
"OX c #CB8262",
"+X c #C98364",
"@X c #D38464",
"#X c #DC8D6A",
"$X c #DA8A66",
"%X c #CC9C61",
"&X c #C59762",
"*X c #D99669",
"=X c #DB9270",
"-X c #E28C66",
";X c #E28E6C",
":X c #EB8E68",
">X c #E49166",
",X c #E3916B",
"<X c #E9946D",
"1X c #EC9067",
"2X c #E79573",
"3X c #E38C70",
"4X c #C3AC7B",
"5X c #C3A679",
"6X c #CBB47D",
"7X c #C5B37B",
"8X c #D2B77E",
"9X c #D3A165",
"0X c #D9C37E",
"qX c #958C83",
"wX c #9A8E84",
"eX c #9B8E8A",
"rX c #928782",
"tX c #9B9285",
"yX c #9C938A",
"uX c #969286",
"iX c #928F87",
"pX c #A2958C",
"aX c #A49B8E",
"sX c #AA9C8E",
"dX c #A29386",
"fX c #A59C92",
"gX c #AA9D93",
"hX c #A79B97",
"jX c #A5928B",
"kX c #A6A093",
"lX c #AAA194",
"zX c #ABA39A",
"xX c #A7A39A",
"cX c #B3A58C",
"vX c #C4AD82",
"bX c #CBB483",
"nX c #CBB685",
"mX c #D4BD85",
"MX c #D4BB89",
"NX c #D6BE90",
"BX c #D5C186",
"VX c #DBC386",
"CX c #D6C189",
"ZX c #DBC48B",
"AX c #DDCA8C",
"SX c #DBC985",
"DX c #DBC592",
"FX c #D9C791",
"GX c #E2CB8D",
"HX c #E1C689",
"JX c #E2CA94",
/* pixels */
"mX6X7X(.I.W.E.T.T.T.T.T.T.T.T.T.E.Y./.l = $.=.%.=.=.=.=.=.=.=.=.-.w.$.3 > 0 4 m 0 0 0 0 M C C C V g % * v Z V V V c z ^.GXCXSXCX",
"R.^.T.U.T./.T.T.T.T.T.T.T.T.~.T.R.T.^.k 1 -.=.u.=.=.u.u.=.=.=.=.$.%.+.< 7 t t t G G G G G G t t t D w r S r t t r 7 5 L.mXMX7X4X",
"T.T.~.T.T.T.~.~.T.T.R.T.T.T.T.R.I./.P.f 0 $.=.w.=.=.=.$.#.O.O.O.O.o.O.0 P m.&X{.}.{.{.{.{.{.{.{.'.'.'.|.|.|.9X.X|.m.q *.~.~.T.E.",
"Y.L.I.U.Q.S.P.P.L.L.L.L.L.L.L.L.Y.J.R a g F #.5.w.%.#.O.| o.} } o.[ O.2 P '..X[.|.|.|.|.|.|.|.|.%X%X|.|.|.|.|.'.|.'.2 z q.S.L.L.",
"g g 4 3 d s 0 j g g g g g m S S e D 1 o g ` %.5.$.+.| } o.O.O.o.o.} O.1 t |.[.|.].].|..X.X|.}.}.'.}.].].].|.|.|.%X'.w X & 5 6 k ",
"#.$.+.V . q 9.p.h.h.7.7.4.4.4.4.8.k.3.* 4 +.5.=.O.O.} } } } o.o.} O.O.4 t |.}.%X|.|.}.C.B.M.v.v.,.b.b.<.b.b.b.N.m.m.w s ` +.#.#.",
"5.=.6.@.& | <X;X>X>X>X>X>X>X>X>X>X;Xd.0 4 O.=.$.` } o.O.O.O.O.O.| } } 3 t }.|.&Xm.N.N.,.,.,.,.<.b.b.<.,.N.N.,.,.>.v.w 0 5.5.5.=.",
"e.w.5.y.* ' >X,X;X;X;X,X,X,X;X;X-X;Xd.m 4 O.=.O.O.o.} } } o.o.} o.` F 3 t '.[.m.b.v.>.b.b.b.<.>.b.>.<.<.>.>.b.b.6.X.V M 5.=.-.w.",
"=.w.$.` > [ :X3X,X;X$X$X$X@XOXd.l.s.s.C 3 ' | | | | | | | | | } ` F e * S v.>.1.b.,.,.1.>.>.<.2.<.V.>.<.N.<.<.,.>.X.6 C =.=.=.5.",
"%.$.} ` , } >X#X@XOXs.s.s.s.s.s.h.s.s.M : N m m g g 4 4 4 j j 4 3 * : o + 2 8 8 1 1 q 0 w r t  .( ( ) ( ( ) ) ( P 2 . C =.=.w.w.",
"O.} } O.7 ` $X`.a.a.a.s.h.h.h.h.h.s.g.M $ * 4 M F F F F F F F F 0 & $ p h k b b U E E E U v : . s 5 6 V S V 8 5 : & o A 5.=.w.$.",
"O.o.o.| < B d.d.s.d.d.j.j.d.s.s.s.9.4.N & ..d.`.-X-X-X-X-X-X-X-X@X' . U H.gXzXgXlXxXxXxXkXqXI h *.cX4XvXnXbXbXvXcXY.z 0 5.i.$.} ",
"} } o.O.4 = 3.3.7.7.7.7.7.7.7.7.0.:.] j < 8.2X,X;X;X;X;X;X;X;X;X<X3.5 rXfXfXfXsXfXgXsXsXlXaX! A P.AXAXSXAXSXAXAXHXMXT C 5.$.} } ",
"O.} o.O.7 . 3 0 0 0 0 0 4 1 < - 3 j j # 0 `.$X-X-X,X,X;X,X,X;X#X<X7.s rXhXhXfXkXgXgXfXfXgXfX! z nXAXBXMX4X4X4XvX5X5XY V -.@.O.| ",
"O.} o.O.7 d I ! ! ! Q Q E I b l d s *   M ;X#X;X,X;X#X#X#X#X$X@X@X7.f F.fXgXaXkXaXaXfXaXyXyXQ v 4XDX6X^.P.T.T.T.T.E.J 6 | } o.o.",
"o.O.o.[ - E qXsXlXlXgXfXfXfXaXpXtXwXG.a q ;X*X-X#X$X@Xd.s.s.h.a.8.a.6 G.aXfXsXhXfXyXtXwXqXtXT k ~.DX^.T.E.T.T.T.T.E.V 0 | o.o.o.",
"| O.o.D & U aXfXfXgXgXgXgXgXgXgXgXgXkXJ 1 $X>X@Xd.s.s.s.s.s.s.s.d.4.f z.sXfXgXtXuXeXwXyXwXJ.U f A.vXR.R././.^.^./.S.6 4 o.O.+.O.",
"C N M 4 O E gXfXfXgXgXgXfXfXfXfXfXsXlXQ 1 $X;Xh.h.h.h.h.s.a.j.s.s.4.g r.gXzXpXtXtXqXwXyXqXtXW > *.*.D.Q.S.S.D.e.Z.R > * m C H H ",
"7 , 9 ,   W gXgXfXfXfXfXfXfXfXfXgXfXaXt.0 @X$Xh.s.s.s.s.s.s.s.s.9.3.g t.gXpXqXwXtXwXwXtXqXyXW . : f k 5 5 x w w r S 6 7 w r 0 1 ",
"V.6...G & W fXlXgXfXaXyXtXwXwXwXtXqXtXt.4 s.s.h.s.j.s.f.j.d.s.d.s.] j F.zXyXqXtXwXyXwXqXtXyXI - y / ( X.1.b.M.M.'.}.}.}.}.}.'.B.",
"[.|.B.X.- U pXjXtXtXwXqXqXwXtXtXtXH.yX~ < 9.s.f.h.a.h.a.a.j.a.h.d.] j F.aXyXtXK.wXqXK.tXK.H.I G b.{.%X|.%X9X%X.X|.|.|.|.].|.|.%X",
"].|.'.X.7 I tXuXwXwXwXwXwXwXwXwXwXeXqXc % 3.+Xd.s.0.OXs.9.s.OXs.k.F + G.wXeXtXtXyXuXwXwXF.F.U ( |.|.[.[.|.>.B.%X|.'.|.|.[.|.'. X",
"|.%X|.,.w J rXeXyXyXyXyXyXyXyXyXqXqX! p + F &.3.3.:.4.4.:.4.4.4.&.3 o U r.F.G.rXrXH.H.rXr.~ J X.|.].|.|.B.v.|.'.|.|.|.|.|.|.|..X",
"'.'.].b.6 + J W W E U I J v c z l l ; X X % 0 y B D B B B B q q 1 o i & 3 f k J z v J J J h + X.|.|..X].|.9X}.'.V.m.V.V.B.C.{.{.",
">.6.N.>.w o 7 A @.*.e.Z.A.A.A.A.S.A.S.D.S.A.*.@.a & M D H ` ` o.O.+.$.#.+.+.O.o.o.K T H e < + X.|. X].|.oX'.m.,.,.>.,.>.<.>.<.<.",
"n.n.1.n.w h Z./.ZXAXAXAXGXGXAXGXSXGXSXSXSXVXAX7Xk m $.=.=.i.i.w.u.=.%.#.#.%.=.=.5.u.u.i.5.H & ..].|.|.}.M.>.>.b.<.<.<.<.<.<.<.N.",
"6.9.<.,.7 U bXHXCXZXBXBXBXBXmXCXmXZXZXZXZXZXJXbXw e =.5.#.&.| } P ` } } } } ` } } #.+.#.#.A .  .|.}.B.N.X.>.>.n.>.b.b.>.b.<.,.,.",
"b.m.b.;.% R VXVXBXBXZXZXZXZXZXJXZXCXCXBX8X6X6XI.x D =.+.` ` ` o.o.[ ` ` ` ` ` o.o.` ` } } C O G X.2.>.1.,.<.<.n.b.b.b.<.N.N.N.N.",
" ./ P w O *.VXCXVXVXBXCXCXmX6X(.(././.^.T.T./.Q.3 H $.` ` ` ` ` O.` ` } O.O.` ` [ ` } K o.S O % r  . .( ..) X.X.X.X.X.) ) ) ( ( ",
"7 , > * o ! HXCXCXDXDXMX(.T.T.T.T./.T.T.T.T./.Z.> m H D } } ` } } } } } } } } | } } | F K m o o X O , 7 < 3 6 2 q e e e e q q q ",
"h.k.4.:.q *.ZXCXAX6X^.I.T.T.~.~.T./.T.T./.E.Y.*.+ % 1 1 6 4 0 0 M M M C C C D M e M t F D = + : a @ ; : * ; $ m 4.a.j.j.@X@Xj.j.",
",X<X-X,X` R VXHXbX^.I.T./.E.T.T.R.T.T.T.T.T.A.T a h Q Q Q Q Q I J h & & 5 J J J J l 3 * * Y qXyXwXJ.K.wXeXr.% [ $X,X<X>X>X<X<X<X",
"+Xd.OX`.] R SXMX~.~.T.T./.T.T.T.T./.T.I.U.q.A.T f F.pXgXzXlXlXlXgXfXQ . r.fXgXzXkXdXF.: l aXlXfXgXkXzXkXcXyXd ..2X$X,X$Xl.`.j.j.",
"h.d.h._.&.Y 7XvXT.T.E.E.Y.E.I.T.R.~./.I./.S.*.L h yXfXgXgXfXfXgXgXzX~ > qXlXfXfXfXgXyXh I lXsXlXfXfXgXfXgXgXb ] -X#X+Xk.k.h.s.s.",
"s.d.8.s.&.g A.e.P.~.^.^.(.(.cXW./.P.T.T.U.L.*.8 l fXlXsXpXyXtXtXpXfX! s yXfXfXgXfXgXyXs U lXsXaXtXuXyXuXK.pXJ ] <Xf.8.s.j.8.s.f.",
"s.f.9.4.F & V Y @.q.e.*.;.*.@.@.T R T H A S x X J zXaXyXqXeXqXtXqXyX! l aXlXfXfXfXfXqX: I fXfXyXyXqXwXyXdXyXJ ' +X3.8.j.d.+X+Xs.",
"' y y q = # O + @ + @ O o # # 2 t ( ..X.;.X.( , U fXtXtXwXtXqXK.tXyXQ z aXgXgXfXyXdXH.s h ! t.t.G.~ r.r.~ U : - { ' &.3.3.3.] ' ",
"c.D.L.L.L.Y.U./.Y.!.~.U.e.& , _ {.|..X|.}..X|.t W qXF.H.qXyXwXwXtXqXU J pXfXfXpXwXK.qXd O > 7 > f f f f s : : j 4 A A > + 3 H *.",
"DXJXJXZXSXGXGXGXJXHXSXGXJXL 5 1.v.oX|. X X].|.u d b c c h c n n k l & v fXgXpXqXtXwXqXh z Y./.cX(.5X5X5X(.4XvXbXnX8X^.x , Y.BXBX",
"BXVXBXZXSXmXMXMXnX8XbX4X4X*.% N.%X'.]. X|.XXXXP . : 8 A L Y Y L Z l + I fXfXyXqXuXwXyXf T DXHXHXSXAXSXGXAXAXGXAXFXHXJXT 5 nXSXBX",
"CXmXbX7X4X^.(.I.E.U.T.Y.(.*.& 1..X].oX|.|.&XB.t o *.6XMXZXZXZXZXBXMX@.^ fXfXtXeXwXtXqXc q.ZXVXDXBXVXVXZXMXMX7X8XmX7XMX*.h bXZXBX",
"(.~.T.P.T.T.E.T.W.P.R.E.(.R * X.|.|.{.B.m.<.b.r @ S.ZXAXCXBXZXCXVXGXx.I zXfXuXiXwXwXyXv Z.ZXHXDXSX6X(.^.I.R.T.E.U.).^.e.g mXGXmX",
"T.T.^.T./.R.T.R.R.!.I./.P.R , ) |.{.,.<.v.,.b.0 s /.SXBXBXSXZXZXNXJXD.J fXfXtXuXtXtXtXZ Z.GX0X6X/.E.E.T.T./.~.Y.W.^.5XA.6 vX(.~.",
"U.T.T.T.T.T.T.E.T.~.U.Y.*.Y , )  XB.,.<.v.b.b.4 f vXSXCXZXmX4X4X(.5Xx.U sXgXdXqXqXwXrXz *.DXMX(.R././.!.R.^.I.(.5XP.U.q.5 *.x.Y.",
"Z Z A L A L L A V V A x 6 * > X.|.m.N.<.v.>.>.1 Z nXSXZXbX^.T.T.T.I.x.J H.pXqXF.H.H.G.z L L.L.S.D.A.Z.*.q.Q A S l l : @ o f H Z ",
"o h U ! ~ r.r.r.F.r.r.! Q h > ,.|.>.>.<.v.N.>.2 Y NXBX(.T.T.E.W.U.5XS.d v E I Q W W E s + > > : + + @ # O * 4 q F ' ' ] ..] / N ",
"& r.yXzXzXzXzXzXlXxXlXzXlX~ 7 >.B.>.b.<.>.6.<.w L MX6XU.T./.T.T.E./.J.@ & 1 2 0 r w e w r w r 8 6 < o O ] d.$X:X2X2X2X<X>X2XOX[ ",
": qXkXfXfXfXfXfXsXfXfXfXzXr.7 1.N.N.b.N.b.6.X.r A T.I.~./.T.^.I.~.x.*.* t ,.'.'.'.}.}.|.'.{.B.m.1.X.5 & 9.<X=X;X#X$X@X$X$X#X`.] ",
"f qXlXaXaXtXpXtXyXtXyXyXfXQ & G ( ;.) ) X. .P 2 k T ! @.*.*.R R R R Y & ( ].[.|.|.|.|.|.|.|.|.|.|.C.8 - d.:X#X$XOXs.s.s.p.s.f.&.",
"h yXpXH.wXqXqXqXiXwXwXH.qXE   + > f 5 5 j f h * @ * o 1 m 0 6 V f 3 > o ;..X[.].|.|.|.|.%X%X|.|..X].w < +X3XOXh.k.s.a.d.h.f.g.3.",
"f qXwXH.dXtXwXyXyXwXwXH.G.h o Q rXqXtXyXyXtXyXtXeXG.f / 7.$X@Xd.7.4...q X..X%X&X%XC.m.<.b.m.B.'.'.B.w < 7.j.s.d.j.d.d._.j.h.s.3.",
"o b E Q ~ ~ ~ ~ ~ r.t.~ U + # G.zXhXzXzXfXlXgXlXhXfXJ :.s.;X,X,X1X<X$X' _ XX|. XV.b.>.>.<.<.>.>.2.2.V * q y F ' ' / ` ' F ` y 0 ",
"g 3 < 3 3 3 5 3 3 * * + & o i qXlXaXkXfXaXkXaXaXfXpXA 9.,X,X-X-X#X=X=X` X.oX'.M.b.<.<.<.<.<.<.<.>.b.k X : ; d d ; + X # * j 3 f ",
"=.=.5.5.u.%.#.#.$.O.o.} G 4 s iXgXfXgXfXpXpXeXeXuXqXJ 8.2X#X#X;X:X;X;X{ ..{.m.,.,.<.<.<.<.<.<.<.<.2.0 V I.7X8XmXnXA.O 4 +.=.=.=.",
"=.u.u.%.=.%.%.u.=.5.5.5.6.o.j H.zXfXpXtXqXqXwXeXdXH.S 7.<X,X=X#Xd._.d.{ ( >.<.b.b.b.b.>.>.<.b.<.<.1.9 T ZXSXVXZXGX^.> D 5.=.w.w.",
"#.| } ` } } ` } o.} o.o.$.@.g H.hXpXwXwXwXwXtXtXtXG.h 9.:X-Xj.f.s.8.7.' u _ 1.,.,.b.b.<.b.b.b.,.<.X.< q.ZX0XBXFXSX(.s N 5.5.=.%.",
"` ` } } } } } } ` } ` ` ` ` g t.lXtXtXqXqXyXwXwXyXt.3 7.:Xf.j.a.s.k.s.' : q r r t t ( ( (  . .( ( ( * D.SXZXBXDXbXL.f C w.-.O.} ",
"O.O.O.O.O.O.O.O.| O.O.O.| ` m ~ pXdXyXwXdXtXqXuXiXQ & 9.;XOXk.h.s.a.s.` ; 3 4 m g m m 6 6 2 1 < < - O D.SXZXSXbXT.L.> C ` | [ | ",
"M M D D D D D D e D D D D M < c Q t.F.H.qXH.qXqXF.U % 3._.8.f._.s.k.l.' V -.%.5.=.=.=.=.=.=.$.#.$.O.j x.SXBX6XT.^.L.* - 0 C C V ",
"V Z A A A A A A A S V x x 5 : ; ; : : d h l J c l d & ` 3.7.a.d.s.j.OXt e =.=.%.=.=.=.w.w.u.u.w.6.5.0 *.HXDX(.U.U.D.a . & : s l ",
"mXmXmXCXCXBXmXmXMXbXbX4X4X(.T.P.A.*.5 o X . . . # X X & = 0 e e ' ' ' 4 H 5.=.=.5.5.5.%.#.#.#.%.e.w.g *.NXDX^.T.W.Z.s A Q.(.4X6X",
"ZXZXZXZXZXZXZXZXZXZXZXZXZXZXDXZXZXNXD.: @ S D H ` K K H D C C 0 g > .   H 5.5.-.=.$.+.O.} } } } [ O.4 R DXZX!.T./.Y.Z S.MXAXGXHX",
"ZXZXZXZXZXZXZXZXBXBXSXSXCXCXSXVXBXZX(., * O.5.u.5.5.5.=.u.5.u.u.=.+.B & K 5.w.$.+.} ` ` } } } ` [ | 2 P 4XmX^.T.R.I.L T.SXBXCXCX",
"CXCXCXCXCXBXmXmXMXnXbXnXbXbX4X4XvX^.E.g 3 +.5.$.w.w.=.w.=.=.=.=.5.=.[ > H | ` } ` ` o.o.o.` } O.H H 7 J *.^./.T.E.L.Y P.GXBXCXVX"
};
