/* XPM */
static char *_96615183007429592fbec05887c00f2sN3YDosKDV2PuKwD[] = {
/* columns rows colors chars-per-pixel */
"64 64 256 2 ",
"   c #3C361C",
".  c #3D2D12",
"X  c #3D3828",
"o  c #3D3D33",
"O  c #4C3B1D",
"+  c #46361A",
"@  c #563D1C",
"#  c #493113",
"$  c #443525",
"%  c #443C24",
"&  c #4C3C24",
"*  c #443D2B",
"=  c #4B3C2B",
"-  c #4A3724",
";  c #523D25",
":  c #513D2C",
">  c #593D27",
",  c #433D32",
"<  c #4A3B35",
"1  c #513D34",
"2  c #6B3F24",
"3  c #3F423A",
"4  c #3E401B",
"5  c #5B4A1D",
"6  c #4C4318",
"7  c #4B4324",
"8  c #45422D",
"9  c #4C432C",
"0  c #454425",
"q  c #544225",
"w  c #53422B",
"e  c #5B452D",
"r  c #554A2D",
"t  c #5C4A2C",
"y  c #5A4725",
"u  c #5D512C",
"i  c #4C4432",
"p  c #494638",
"a  c #544433",
"s  c #5A4433",
"d  c #544B34",
"f  c #5B4B33",
"g  c #544B3A",
"h  c #5B4C3B",
"j  c #55453A",
"k  c #4D503C",
"l  c #595338",
"z  c #634B2C",
"x  c #674A2A",
"c  c #744E2D",
"v  c #67532B",
"b  c #624C34",
"n  c #6A4B34",
"m  c #6A4D3A",
"M  c #634838",
"N  c #754C3B",
"B  c #6C5335",
"V  c #63533B",
"C  c #6C543C",
"Z  c #6C5A3C",
"A  c #665935",
"S  c #745C3B",
"D  c #775739",
"F  c #73572D",
"G  c #78653B",
"H  c #746333",
"J  c #564C42",
"K  c #5A5643",
"L  c #474C43",
"P  c #644D43",
"I  c #6C5B43",
"U  c #675645",
"Y  c #785A46",
"T  c #715D55",
"R  c #746244",
"E  c #7B6443",
"W  c #796749",
"Q  c #7B7249",
"!  c #776853",
"~  c #6E664B",
"^  c #5D6840",
"/  c #875B3B",
"(  c #84643C",
")  c #896C3B",
"_  c #855B48",
"`  c #925D4F",
"'  c #826543",
"]  c #836B43",
"[  c #83624B",
"{  c #846B4C",
"}  c #8C6948",
"|  c #94674A",
" . c #887448",
".. c #96774B",
"X. c #886952",
"o. c #9A6B54",
"O. c #966956",
"+. c #8C7354",
"@. c #887757",
"#. c #9C7C56",
"$. c #977758",
"%. c #A37C54",
"&. c #A5795B",
"*. c #B5765C",
"=. c #A77254",
"-. c #947C64",
";. c #90726E",
":. c #A87A66",
">. c #B67B65",
",. c #BE7E73",
"<. c #C47E68",
"1. c #A5843F",
"2. c #99834B",
"3. c #988758",
"4. c #91884C",
"5. c #A78658",
"6. c #B68A5A",
"7. c #A99659",
"8. c #B7945D",
"9. c #A8914E",
"0. c #BCA65A",
"q. c #9B8865",
"w. c #998A68",
"e. c #AB8B65",
"r. c #A78866",
"t. c #B48D63",
"y. c #BB8D63",
"u. c #BC846B",
"i. c #B88968",
"p. c #A29462",
"a. c #AB9867",
"s. c #B29365",
"d. c #BC9264",
"f. c #B5946C",
"g. c #BB946A",
"h. c #BC9A6C",
"j. c #B89C66",
"k. c #BC8874",
"l. c #BC9C73",
"z. c #B99874",
"x. c #AA9174",
"c. c #ACA466",
"v. c #BEA463",
"b. c #BAA76A",
"n. c #BAA676",
"m. c #C68A5A",
"M. c #C3955D",
"N. c #CD9157",
"B. c #C5A65C",
"V. c #CBB25E",
"C. c #C48265",
"Z. c #C5846A",
"A. c #CA856C",
"S. c #C48B6C",
"D. c #CA896E",
"F. c #C88966",
"G. c #D28A6C",
"H. c #D5856B",
"J. c #C39565",
"K. c #CA9564",
"L. c #C49A65",
"P. c #CB9B65",
"I. c #C3956B",
"U. c #CA946C",
"Y. c #C59B6C",
"T. c #CA9D6D",
"R. c #D29D6C",
"E. c #D39769",
"W. c #C48572",
"Q. c #CC8672",
"!. c #C48D72",
"~. c #CD8C72",
"^. c #C98A7A",
"/. c #D18D74",
"(. c #D48C7A",
"). c #D98C76",
"_. c #CB9474",
"`. c #C49C73",
"'. c #CA9D72",
"]. c #C49E78",
"[. c #C89878",
"{. c #D39176",
"}. c #D4947A",
"|. c #DB937B",
" X c #D99777",
".X c #E5967B",
"XX c #E6956F",
"oX c #C3AB65",
"OX c #C5A46B",
"+X c #CCA26E",
"@X c #C5AD6B",
"#X c #C9AE6D",
"$X c #C8A564",
"%X c #D4A36D",
"&X c #D8A66A",
"*X c #CCB266",
"=X c #C6B26C",
"-X c #CAB26E",
";X c #C6B366",
":X c #D4B76A",
">X c #C5A274",
",X c #CCA273",
"<X c #C4AC73",
"1X c #CAAC74",
"2X c #C4A27A",
"3X c #CDA479",
"4X c #CCAB7B",
"5X c #C4AD7A",
"6X c #D3A373",
"7X c #D9A572",
"8X c #D3AC73",
"9X c #D2A47A",
"0X c #D3AC7B",
"qX c #DBAC7C",
"wX c #DBA976",
"eX c #CCB372",
"rX c #CBB777",
"tX c #D2B473",
"yX c #D3BB73",
"uX c #D5BB7A",
"iX c #D9BD7B",
"pX c #D8B57A",
"aX c #E2A976",
"sX c #E8B67C",
"dX c #EFB174",
"fX c #DAC47B",
"gX c #D5C368",
"hX c #E3C87B",
"jX c #F4C772",
"kX c #BCA782",
"lX c #BF9F8A",
"zX c #C79783",
"xX c #D99886",
"cX c #C68D80",
"vX c #E89984",
"bX c #F49F82",
"nX c #C9A983",
"mX c #D4AC82",
"MX c #DCAA84",
"NX c #C9B784",
"BX c #DDB483",
"VX c #D7B686",
"CX c #E8A489",
"ZX c #E2B483",
"AX c #E7BA88",
"SX c #F4BC86",
"DX c #ECB791",
"FX c #DEC383",
"GX c #DBC88A",
"HX c #D6C592",
"JX c #E5C887",
"KX c #F8C48C",
"LX c #EAC894",
"PX c #F7C694",
"IX c #EFD58C",
"UX c #EDD592",
/* pixels */
"~.}.A.}.A.C.|.=.M q s.U. X+Xh.'.`.I.`.'.I.Y.T.Y.OX) e p a d.SX3XwX7X6XT.T.Y.I.I.I.%Xh.d ; 6X6X2X3Xf.V o p p = e w 9 b }.H.m.!.(.",
"Z.~.Z./.~.A.}.*.! & ] MXU.3X,X7X+XJ.J.T.'.'.'.[.j.nX-.$ +.LX%X'.d.L.T.,X,X'.`.`.`.%X9XV p Z #.e.S z # z R f = g = k 9 ` A. XC.<.",
"Z.~.D././.~.{.D.Y 9 f r.z.l.h.I.Y.+X+X+X+X+X+X8X4XkXW @ BX0X'.U.>XI.g.Y.'.,X'.Y.g.%X6.V 3 p # @ e S %.qXZXf.W i i p o M o._.{.A.",
"A.D.D.D.~.D.Z./.o.C 8 = n t Z Y [ X.} } 5.s.8.s...f O L.sXT.].6X>XY.Y.T.,XT.L.d.3XI.F 9 k * X...kXmXqX7XR.,X2Xq.I d * = M | }.).",
"/././.~./.~.Z.|.>.n 8 h : 9 % + $ : f C C w = P > $ @.KXP.Y.`.6XY.Y.P.T.P.T.,X9XqX+.8 & @ `.VXVX3X,X,X,XJ.J.,XT.g.%.Z 9 w n ^.|.",
"/./.~.~./.~.A.|.Z.[ g 7 t v Q w.c.b.rXGXn.R 9 p w h @.h.qXI.Y.T.9XP.L.P.+X3X>Xl.5.a p @ K.KX7Xd.K.J.Y.3X`.J.%XP.wX6Xf.Q 9 N xX).",
"C.Z.C.Z.A.C.Z.~.*.C   Z JXJXUXLXfXgXgXhXfXb.] 6 , r O +.zX9XT.Y.T.T.T.,X'.t.+.Y z d % g.PXK.I.T.T.,X'.'.`.'.6XT.Y.K.9X{ + O.CXG.",
"D.~.~./.{.~././.` V 0 NXIX:XV.:X0X0X8XB.*XFXrX3.K & y % Y I.%X1X,X3X,Xt.} B s a w * w.KXR.].].P.l.I.I.T.7X6X3Xz.g.U.d.y 7 k.vX.X",
">.u.Z.A.Q.}.{.Z.T # 9.IXgX1X<X*X#XeX-XoXv.@XyXiXc.v w i < M t.9X[.r.' f d i i 8 6 5.sXaXI.2X3X+X`.'.T.M.6X'.t.nX3X6X&.: M }.A.>.",
"X.X.O.O.O.O.O.X.: E JXJXtXv.tXeX@XeXeX-X#X-XeXeXrXb.Q 9 i w b +.S t &   9 9 a a Y nX8X$X,X`.'.U.h.f.3X+XT.7XR.P.L.+X) 9 ! &.| X.",
"a a j h s h h h q c.IXVX4X@X@Xb.@X#XeXeXeX-X@XoXyXfX<X@.g i % 9 0 + B :.k._ w 9 1 W b.0.M.R.y.`.Y.L.9X0X3X3X+X%X>Xg.Z   l q > h ",
"9 0 % + % r d * 7 4.=X#XOXtX@X<X#X#X#X#X#X#X@X@X0.B.FXn.r i d s W x.xX)..XxX:.m 1 9 G >XqX/.T.b.P.aXY.$.+.@.W R C f h , i 9 $ * ",
" .4.p.n.5XNXp.H & V NX:XV.oX<X@X-X-X#X@X#X#X-XeXb.#XyXj.t & Y k.vX|./././././.(.O.M . E zX}.Y.$X9Xg.' t 9 % X X a < * r t S W { ",
"JXJXJXfXfXJX@X2.R a f.fXgX-X<X@X@X@X@X@X@X@X#XeX<XeXtXj.A - o.DXH.G.C.F.F.D.D.{.).:.W = I l.0X7X-.b + ; e Z +.+.& d 0 j.iXuXFXJX",
"-X#X*X*X*XyXrXOXp.Z G a.b.uX-XuXeX@X@X#X-X@X@X@Xn.0.-Xb.u ; >.XXi.I.~./.A.{.I.i.D.xX^.X.q E f.} b { r.2XmXPXPX6.t 9 7 FXIXyXyX:X",
"@X@X-X-X=X@XrXNX@X9.G s @.7.@XtXuXeX-XeXeXeX-X@XrX*XyXc.l a zXXXU.D.W.xX(.(.G.|.g.D.vXvX>.E r l qXAXsXdX&X%XwXpXX.* V LXsX@X<X$X",
"eX-X@X@X@X@X@XoXiX;X9.Q = J Q 9.B.:XiXyX-X-X=X-X=XB.pXc.u m xXG.~.~.A.Z.D././.D./.C.k.K.XX;.< 2.AX9XY.Y.Y.T.,X0XJ.f k a.tXuXv.:X",
"@X#XeXeXeXeX#X@XOXyXyX9.+.9 7 r Q p.n.n.b.eXuXpXuXiXJXc.r X.CXG.{./.~.~././.~.Z.G.xX!. X*.P I sX0XT.I.T.,X,X'.,XqX+.0 H j.BXtXoX",
"eX-X-X-X-X-X-X-X<XrX@XyX7. .: j X U ~ Z W E G  . ...p.3.t :.xXS.D.A.Z.A.~./././.H.!._.A.` + e.SXY.Y.T.9X9X'.T.,XqXh.A 0 @.1XfXoX",
"eXeX#X@X@X@X-X-XeXb.eXyX:X7.+.1 h & w w & 9 g o w + 4 0 - ^.vXF.~.D.A.D.D.A.A.A./.u. X>.P S sXqX6.d.T.,XY.d.d.T.'.qX5.% l 5.iXeX",
"@X-XeXeXeX-X#X@X0.OX1XOX:XfXn.R 9 a q ; f h 9 8 p p k 8 m xXvXF.~.~.~././.~.A.Z.S./.H.[ o j.dX3XJ.J.T.,XY.J.J.T.Y.7XY.l *  .@XrX",
"@X@X@X#X#X-X-X-XfXJX<XeXeXeX4.H p 9 &  .VX3X..} K : =   C W.).D.~.~.~.D.A.~./.{.i.|.>.w ~ AXXXl.9XT.Y.T.,X'.T.T.,X%XqX+.% V a.fX",
"@X@X@X@X@X@X-XeXeXoX@X-XVX..u 9 % r e.LXZXwXZXqXn.`.r.E z c | zX{.}./.Z.C.A.~.~.~.D._ w >XSX6Xh.T.I.J.J.Y.Y.Y.J.>X+XqXd.b i 3.hX",
"@X#XeXeXeX-X-X-X<X@X:XyX2.Z i , F 4XLX&XM.K.d.`.B.aXaXmXNXx.Y N <.~.{.~.~.}.{.~.|.*.& I aXaX2X_.J.I.Y.T.Y.I.Y.Y.Y.Y.T.6XY , Q &X",
"yX@XeX@X-XyXoXoXv.tXiX5.Z 8 % @.sXpX+XY.Y.Y.I.d.Y.T.T.P.8XmXr.c y E [ o.=.:.:.i.6.D : a ! n.,XK.Y.Y.'.I.y.d.Y.Y.d.I.P.%Xr.1 h c.",
"yX@XeXeX<X1X1X1XoXrXp.I + z ,XSX7X6X'.,X,X,XT.P.Y.'.T.L.L.3X`.t.h = a - : M M U U s j * 9 3.8X&XJ.T.,XY.,X,XI.T.Y.'.K.P.l.U w 4.",
"uX#XoXeXeX1XpX1XFX3.l % ' qXSX&XS.I.`.'.,X'.T.+X,X'.'.T.I.T.,XT.x.a a d 8 X i $ < X 9 9 - M %.pXT.Y.,X,X,X,XI.,XOXY.I.P.pX+.; R ",
"j.rX@X;XB.0.:XyX7.H + $.DXsXT.z.'.'.'.9X'.Y.J.Y.Y.I.`.9X9X,X6X+X6X%.y 7 d A 3.5.q.3.4.p.q.m n x.0XY.T.7XT.Y.3X,XY.I.I.T.8X7.t h ",
"5.VXrXeXfXb.7. .B d i X.9XwXI.n.P.P.P.+XT.Y.T.'.3XY.'.3XY.y.6.8.&X7X#.V . ] UXhXhXIXFXVXVX5.C U g.,XJ.+X,XT.mX`.L.I.`.T.L.1XE < ",
"G NXNXa.@.V a < s , L X V mXwX$XOXOX+X+X+X,X'.'.d.6.y.'.3X3X3X>Xh.5.@.P & x.GX*X:XtX8X8X*X*X7.A ' 2X>XY.,XY.Y.I.I.,X,X'.J.AXq.i ",
"A @.Z & - e m M > w & 9 = e ..5.f.l.2X,X'.'.T.I.,XY.Y.3X3X].e.$.I f + q a.GXv.*XtXOXoX#XoX-XfX7.S #.].3XY.d.d.g.[.+X#X[.[.Y.+.d ",
"9 8 + w { 4XAX$Xz.Y.6.%.-.T < p m [ $.e.d.'.6XT.6X6X6XJ.%.( n > X d 3.iXJX:XtX@X<X=X;X-Xb.n.uXtX@.z e.mXY.T.'.I.[.M.$X[.xX( y 0 ",
"X 9 ] +XKXsX7X6X0XqXsXsXAXBXe.' L X & M Y { #.5.[.g.) v 9 p p 9 ..eXJXiXeXOX@X-X-X#X-XeXeX#X#XeXp.V b h.1X`.3X#X,XY.0Xf.I i w q ",
"' `.LXAXP.d.g.f.I.T.P.P.6XT.,XVXK...V * + @ h J I s % i j : { <XFXFX-XoXOX1XeX@XeX-X@X@X@X@XeXtXc.W -  .0XT.U.L.$XwXi.x 9 i % s ",
"AXwXP.L.+X3X].z.Y.9XY.d.Y.J.d.,XXXZX#.w k p X C t 7 9 < J a ..JXyXoXB.oXv.@X@X@X#X@X@X-X-X@X@X@X;X3.* S 9XK.R.7X8X} M a q O E lX",
"Y.Y.+XY.J.T.R.%XT.T.`.`.,XY.J.J.BXg.} a , U t.sX1X5.S : < $ A c.-XoXfXhXeX<X#XeX@X@X-XeXeX#X@XoX:Xp.l a 5.7XBX].@.d p p m I.DX7X",
"T.Y.Y.'.,X%XK.m.P.d.I.3X`.'.qXZXp.V % b &.sXSX%XaX7X3Xf.{ q 7 3.yXoX-X-X@XOX@X@XeX-X@X@X@X-X-X-X:Xn.! $ { AXz.W , 8 9 = U x.9X&X",
"sX%XP.T.,X`.`.2XT.I.Y.'.,XmX`...s z 5.AXsX%XI.z.I.I.T.BXpX>X} D <XrX@X@X-XeXrX#X@X@X@X@X@X-X-X#X*XuX3.= I p.z - r o.*.N = 8 I g.",
"..`.BX6XJ.'.2Xl.Y.'.T.T.3Xf.{ q W AXsXN.M.2X`.MX].l.t.6.L.qX'.| #.VXeX-XeXOX@Xv.oX@X@X@X#X-X@XoXv.-X8.A i r @ Y i.{.vXQ.O.h = P ",
"i W e.,X7X%X%X8XBXqX6X6Xt.c ; ! sX+Xl.nX6XR.+XY.L.Y.'.'.'.`.l.+.F rX-XoX-Xv.eX-XrXeX#X@X@X-X-X@Xb.:XyX] % d :.xX).Q.k.W..XA.D p ",
"i & b $.].qXT.M.5.+.~ T i + ..qX3X3XI.t.g.I.I.'.L.T.+XT.Y.Y.I.y.V 3.GXyX@X@X-X*X8X8X8X#X#X1X4X4XtX-Xa.R m zX^.F.D.cX~.H.Q./..X_ ",
"p 8 = s C I A t 9 & w & @ #.VX,XY.,XY.Y.'.'.Y.T.Y.T.Y.Y.Y.`.`.I.V A 2.7.b.NXrXuXoXoX0.0.;XgXyXv.3.A % $ D  XG.A.>.U.S.}.Z.W.:.B ",
"t s s e s d d i J g = + ' 2X3XY.T.6X+XY.P.T.Y.Y.,X,X,X'.'.'.Y.I.@.O # 5 v y E +.a.n.NXHXNXa.) 5 + Z r.' @ $.}.H.xXm.y.i.~.cXP 5 ",
"OX,X,X3X>X2X2Xn.l.{ Z g a R #.J.Y.,XT.J.L.,X6X,XJ.Y.Y.T.,X6X6X'.$.v a.nXl.+.E v w - b ! I ; b -.mXPXPXd.@.h N ^.xXH.G.~.W._ X.AX",
"wX%X%X7X&X&X&XwX7XJ.e.X.w & f W 5.g.>X,XY.Y.T.T.6XT.P.P.P.T.T.T.f.c l.mX'.AXmXnX2Xr.( x ( h.VXAXdXP.h.h.ZXt.m J o.zX.XG.Y n 9XSX",
"g.t.y.T.6X+XP.R.J.wXwXP.s.X.i o v ' r.].].`.,X'.Y.Y.Y.,X,X'.`.`.z.D S mXm.K.P.'.+X,X0XBXAXZX8XP.R.8.5Xj.J.qX3X] # I >.|   q.KX7X",
"g.g.g.`.,XT.I.d.Y.d.P.7X6X`.r.W w q B +.r.`.3X,X2Xh.f.e.3.+.' E B e + nXZXK.P.d.J.Y.Y.I.I.'.T.Y.n.s.K.R.`.f.Y.sXs.C s ; E JX8XY.",
"P.P.T.T.'.,X3X,Xg.4X`.`.3X+X6X&X;.h + q S %.e.%.+.' B b t w s V T J i f g.qXT.h.Y.I.I.Y.Y.Y.Y.+X8.d._._.J.Y.Y.d.7XI.g , 9XSX`.g.",
"I.'.'.`.`.,X'.J.T.'.'.`.I.d.Y.0X+Xt.S ; & a K K w f C Y | >.~.|.).>._ a 9 @.3X%X'.'.[.I.[.z.f.`.Y.+XY.I.'.'.'.'.2XwXB { sXwX2XP.",
"6XT.T.'.Y.g.I.`.T.Y.Y.I.Y.Y.Y.d.6XY.l.X.h g : - :.k.xXCXCXvX.X.X X~.k.:.m > G f.%XP.8.P.$XM.M.P.`.h.d.y.d.t.t.h.J.7X$.V %.t.2XP.",
"9X,XP.J.J.J.I.`.Y.Y.Y.I.I.Y.I.J.I.6X3Xq.I = > o.vX.X/.G.G.D.A.C.S.Z.Z.Q.,.` n b %.].mX3XI.I.6XJ.y.d.J.T.,XY.Y.>X%X+Xw.p : C r.Y.",
"r.l.3XP.P.T.'.Y.T.T.,X,X'.T.T.,X'.qX6...V $ O.CXCX/.C.C.S.S.i.i.Z.D.C.A.).}.:.Y y ] f.3X3X0XpX,XR.7X6XR.'.Y.t.5. .B V J 1 : e G ",
"f +.f.>X+X6X7X6X,XI.J.,X9XT.I.J.9X'.5.G - Y MX.XZ.u.Z.!.!.u.u.u.^.S.D.F.F.|.}.>.~ w b +.q.#.$.r.e.e.e.t.r.$.Y M g * + w a i & & ",
"- ; C $.s.I.6XqX9X'.Y.,X,XY.Y.`.3Xt.#.z n zXCXH.(.~.~.Q.Q.Q.Q.(.Q.Z.I.I.F. XZ./ j < s s > M s s d i a l h = X ,   K +.x w h +.b ",
"_ e O t R +.r.g.`.'.,X,X,X,X,X'.t.$.~ = } CXA.C.(./.A.A.A.Q.Q.A./.}.[.D.A.~.&.n x s.1Xj.j.>X5X#.X i r q q r Z @.<XNXLX..% C }.u.",
"k.$.C 9 X 9 C { ..%.5.6.Y.3Xg.../ V p = |  XG.W.Z.D.!.Z.u.Z.S.S.G./.D.Q.(.,.Y i d.AXJ.P.%XT.mX5.- @.n.5X-XyXhXJXjX@XyX7.8 X.bX.X",
"{.|.Z.} x w * p > Z E } %.%.' C j p p & &.|.G.F.~.Z.D._.~.Z.Z.~.cX}.G.C.^.O.2 %.AXd.f.].h.g.`.z.i a.IXtXrXyX;X#X$X;XrXW 9 >..XW.",
"D.{.}.!.:.Y a g k 3 p i P U i o w & 9 & o.xXC./.~.Z.C.Z.~.~.~.~.G.m.m. X:.n @.HXJ.I.3XY.7X&XJ.J.l GXB.$XuX@X*X1X@X-Xa.V b }..XW.",
"~.D.G.|.}.:.U a w & f b Z S S E ( E W O :.xXC.D.~.D.Z.D.{.{.D.Z.u.Z._.i._ _ mX$XM.ZXI.I.6.} S e u GXyX-XOX=XeXeX=XuX .& Y CX XZ.",
"~.~.A.A./.k.[ = 6.wXZXZXBXZXsXSXPXLXNXS _ u.(.(.~./././././.~.D.W.W.cX:.N / AXK.t.#.' v z @.J o  .fX*XyX#XrXoX#X=X0XG + =.CXS.A.",
"S._.{.A.A.W.O.e } BXT.Y.I.,XT.P.m.J.3Xl.c | ^.^.~.~.~.~.~.(.}.}..X/.>.Y h < ! C p i * & z.LXf.@ 2.UX=X0.#X1XeX=X-Xl.l q /.vXS.).",
"!._._.D./.~.&.C e l.Y.Y.h.2X,XT.P.J.T.3Xt.c o.o.o.o.o.o.o.o.O.| / o.X.w 9 0 r V G r.E x mXY.ZX6.H n.HXrX#X1X1X=XyXq.9 B CX|.S./.",
").D.S.Z.G.(.>._ & #.7X&XT.`.P.P.3XT.T.T.AX..D x b e e f f e w w w s b S 3.s.Y.qXdXwX5.# r.>Xd.mX5.B 3.rXyXpX@X;XtXQ 8 o.CXG.Q.!.",
"H./._.D.A.).W.| L Z ,XE.,X2X].Y.2X'.J.P.J.VXz.{ i 9 9 i 9 i K ! %.z.mXZXsXsXaX/.J.nXx.& S VXy.K.VXX.O H 9.0XFX;XB.^ 8 u.CXH.)._."
};
