/* XPM */
static char *_001b43111c943a1f1d17df0a5292503ZxkNbg7zfv2lEbOA[] = {
/* columns rows colors chars-per-pixel */
"64 64 178 2 ",
"   c #2F2724",
".  c #2A2926",
"X  c #2F2E2A",
"o  c #302B27",
"O  c #332E29",
"+  c #34322C",
"@  c #3A342E",
"#  c #353532",
"$  c #3B3631",
"%  c #353831",
"&  c #3D3A34",
"*  c #3F3E39",
"=  c #423B35",
"-  c #433E3A",
";  c #493F3D",
":  c #3D4037",
">  c #45423C",
",  c #4B443D",
"<  c #4C483F",
"1  c #51473D",
"2  c #444442",
"3  c #4B4641",
"4  c #4D4A45",
"5  c #4B4B49",
"6  c #534C45",
"7  c #544F4A",
"8  c #594E48",
"9  c #545047",
"0  c #56514B",
"q  c #5B544D",
"w  c gray32",
"e  c #5D5651",
"r  c #5D5A54",
"t  c #5F5B58",
"y  c #61584F",
"u  c #625751",
"i  c #635C55",
"p  c #645F59",
"a  c #685F59",
"s  c #646157",
"d  c #696056",
"f  c #66615A",
"g  c #6B645D",
"h  c #6C685E",
"j  c #70675E",
"k  c #71685F",
"l  c #6B6662",
"z  c #6D6962",
"x  c #6F6B68",
"c  c #706661",
"v  c #736B64",
"b  c #786D66",
"n  c #736D69",
"m  c #796F69",
"M  c #757067",
"N  c #7A7067",
"B  c #76716B",
"V  c #7C736C",
"C  c #7C786F",
"Z  c #757170",
"A  c #7C7671",
"S  c #7E7972",
"D  c #7F7E7A",
"F  c #80766E",
"G  c #82786F",
"H  c #817771",
"J  c #837B74",
"K  c #897D76",
"L  c #857D79",
"P  c #897E78",
"I  c #848077",
"U  c #8A8177",
"Y  c #86817B",
"T  c #8C837B",
"R  c #8C887F",
"E  c #92867E",
"W  c #92887F",
"Q  c #988A7F",
"!  c #8B8681",
"~  c #8E8983",
"^  c #908780",
"/  c #948B83",
"(  c #9A8D85",
")  c #968E8A",
"_  c #998F89",
"`  c #949087",
"'  c #9B9187",
"]  c #96928B",
"[  c #9D938B",
"{  c #9D9591",
"}  c #9D9992",
"|  c #A19186",
" . c #A2958C",
".. c #A8978D",
"X. c #A5988E",
"o. c #A89A8E",
"O. c #A39691",
"+. c #AA9792",
"@. c #A59A92",
"#. c #AA9D93",
"$. c #A69F99",
"%. c #AB9E99",
"&. c #B09F96",
"*. c #B29F98",
"=. c #ACA196",
"-. c #A6A19D",
";. c #ADA299",
":. c #B1A197",
">. c #B2AA97",
",. c #B3A59B",
"<. c #B9A69D",
"1. c #B6A99E",
"2. c #B9AA9F",
"3. c #AFA8A2",
"4. c #B2A6A1",
"5. c #B6AAA1",
"6. c #BBADA3",
"7. c #BFAEAB",
"8. c #BEB0A3",
"9. c #BEB0A5",
"0. c #BFB1A6",
"q. c #BEB0A7",
"w. c #BFB3A7",
"e. c #BFB6A7",
"r. c #BEB1A6",
"t. c #BFB1A8",
"y. c #BFB2A9",
"u. c #BFB5AC",
"i. c #BEB1A9",
"p. c #C0AFA5",
"a. c #C3AFA6",
"s. c #C1AFA5",
"d. c #C1B0A6",
"f. c #C0B2A7",
"g. c #C1B2A6",
"h. c #C1B3A8",
"j. c #C0B2A9",
"k. c #C0B3AA",
"l. c #C4B3A9",
"z. c #C2B4A9",
"x. c #C3B5AA",
"c. c #C2B4AB",
"v. c #C5B4AA",
"b. c #C4B6AB",
"n. c #C7B7AA",
"m. c #C6B6A9",
"M. c #C2B3AC",
"N. c #C3B5AC",
"B. c #C4B6AD",
"V. c #C5B7AE",
"C. c #C2B4AA",
"Z. c #C8B7AF",
"A. c #C5B9AB",
"S. c #C6B8AB",
"D. c #C6B8AF",
"F. c #C5B9AE",
"G. c #C8B8AB",
"H. c #C9BAAF",
"J. c #CBB5B2",
"K. c #C6B9B0",
"L. c #C6BCB2",
"P. c #C6B9B1",
"I. c #C8BAB1",
"U. c #CCBBB1",
"Y. c #CCBBB3",
"T. c #CDBCB2",
"R. c #CFBDB3",
"E. c #CBBDB5",
"W. c #CEBDB5",
"Q. c #CBBCB3",
"!. c #D0BEB6",
"~. c #CEC0B7",
"^. c #CDC1B6",
"/. c #CAC3B9",
"(. c #CEC2B9",
"). c #D2C1B7",
"_. c #D1C0B6",
"`. c #D2C3BA",
/* pixels */
"6.k.k.0.6.p.<.U. .[ r L M.p.s.2.<.&.#.' V V L i / ;.B.<.#.#.0.6.0.6.0.0.f.0.f.z.v.[ 9 C { @.E.G.;.6.6.E b H q H #.I.;.#.X.@.<.6.",
"N.6.1.0.k.6.<.T.@.[ v M @.U.v.A.=.#.=.T V H z g ,. .D.;.@.6.6.1.f.0.0.0.0.6.6.0.v.6.Y g ) [ K  .#.,.K b H C 6 [ ,.B.#.@.#.1.f.f.",
"6.0.0.6.6.z.6.0.[ [ ! , [ 4.#./ ( O.[ / H C q L 1.X.E.#.,.f.6.6.0.0.6.0.0.0.6.0.l.K.O.i r ( V V H V H H Y 4 v 5.6.0.@.;.,.6.z.0.",
"6.6.f.z.6.6.0.k.H A B + 7 J A C v J U U ( V = ) #.6.B.=.0.0.0.k.0.6.6.6.0.0.0.0.,.@.@.z   i i r e q 0 q @ + O.O.0.5.@.6.0.6.0.6.",
"8.6.0.0.6.0.k.1.V J 6 q e & , = - q v a 6 + 3 { #.B.,.,.z.0.0.6.0.0.6.6.0.0.6.6.,.;.[ q 7 [ J S H H H J t = T O.6.1.;.y.z.6.0.f.",
"6.f.0.6.y.k.,.U A q a 4.O.] b T O.;._ [ / q $ @.6.6.<.6.6.0.6.0.0.0.6.0.0.0.2.,. .E N , O.4.u./.L.K.E.#.{ g f [ ,.0.6.6.6.6.0.0.",
"l.6.6.k.6.[ U m z =  .6.[ / ;.<.6.0.N.=.[ [ 7 J =.6.f.0.6.6.6.f.0.0.0.0.0.6.:.X.U L > S <.^.6.1.e.A.T._.5.T 4 / @.z.v.6.6.6.0.6.",
"6.f.6.,. .F V N + l I.y.5.1.6.Z.2.,.<.^.(.' T q Q k.k.1.k.6.f.6.0.0.0.6.6.,. .W L q 9 #.E.6...o.>.2.<.a._.q.s t  .6.z.6.f.0.6.0.",
"6.2.X.#.K N J e = ;.y.#.#.1.5.@.X.,.6.6.Q.1.[ d C @.F.0.h.f.6.y.6.6.6.e.X.;.( V B @ U (.0. .;.5.6.z.f.f.y.(.[ = R [ k.k.2.f.0.y.",
"=.@.@. .F V L & b L.#.#.,.#.@.@.<.6.6.k.6.(.@.U 0 [ 6.6.6.f.f.k.N.6.0.=.,.;.T V 4 d 5.I.=. .1.q.0.6.f.f.<.D.q.i 0 [  .^.6.6.0.1.",
"@.X.;.W v C z - <.6.X.;.#.#. .;.6.6.f.6.6.Q.5.[ c d @.E.f.l.6.<.=.6.,.#. .#.J N , [ (.<. .,.6.6.0.6.p.f.,.0.`.( @ J / @.`.0.=.@.",
";.@.#.U V L < g K.#.X.,. .#.#.q.k.0.z.6.z.6.K.#.P 6 T #.B.6.K.6.F [ #.#.,.@.T q b N.k.X.#.6.0.6.6.k.6.6.p.6.E.k.g , O.W  .k.=.#.",
"[ / K b H N 6 [ k.<.X.#.#.#.1.z.0.0.6.v.6.6.N.5.} g 6 ] [ 4.y./ V ( O.O._ V c f  .L.;.#.1.6.6.f.6.z.6.6.k.6.6.).) 6 q @.( ;.;.#.",
"V J H H L q a ;.f.,.;.@.#.,.0.6.0.6.6.f.<.k.6.z.[ J = 6 I V V d a ( @.T J U a V ,.y.@.,.f.0.6.0.k.6.6.k.6.f.6.!.4./ = l #.~ V F ",
"V B n l p @ g 5.z.X.,.%.#.k.f.6.z.6.v.6.f.l.6.6.J S > $ 3 6 q 1 , 6 p 7 9 $ = #.,.6.#.<.v.0.0.6.p.6.0.0.6.k.0.f.N.[ U + l ! n V ",
"- & > 5 5 @ 6 O.6.<.@.,.6.y.6.f.1.z.6.6.f.6.<. .V m ; T 3.;.6.5.[ v > 5 r l a [ :.0.,.1.k.6.0.f.6.l.f.2.0.6.6.=.H.U N > X 7 4 - ",
"L U _ X. ./ q S  .6.,.2.f.8.6.k.6.f.6.k.0.,.X./ J y b ).f.p.6.q.6. . .#.,.=.U N X.y.z.d.f.f.y.6.6.z.6.5.B.5.#.X.J.K M & J #.W F ",
"( ;.6.f.D.#./ q /  .B.v.6.f.l.6.y.6.v.2.,.#.=.F C 6 W B.:.#.#.@.#.6.v.6.k.#./ M U ,.I.6.6.1.6.z.6.6.f.6.<.#. .5.7.K q v 5.,.<.;.",
"6.N.6.6.D.B.@.N a [ #.T.6.2.6.6.0.k.6.=.#.5.[ V z , @.B.,.o.X.@.#.6.6.f.`.6./ J b O.6.v.6.0.k.6.2.f.0.6. .@.,.;.P c i ;.6.B.,.1.",
"1.1.<.6.1.(.#.[ e L ( k.U.2.1.h.6.0.,.o.#.[ N H > q ;.N.@.=.@.1.0.6.1.0.z.N.' @.g J ;.K.6.0.6.2.z.6.@.@.#.,.[ G B q  .,.k.#.,.;.",
"#.,.0.k.6.k.I._ T 4 [ #.I.k.2.6.y.#.@.#.1.L A v + ~ q.5.X.<.2.6.0.f.0.0.6.Q.X./ / i / q.D.z.1.v.6.@.#.@.1.[ b G s L 5.B.#.#.#.@.",
"2.k.f.6.0.6.E.#.[ i a [ ,.D.D.2.;.X.X.;./ V J $ a 5.q.,.1.6.z.6.6.6.0.6.k.B.6.( [ V b [ @.k.z.6.;.#.@.[ / V J b h ;.k.,.X.=.#.#.",
"6.f.0.6.z.0.2.f._ [ , L [ 5.z.6.;.y.6.,.F V i -  .y.,.1.f.6.0.6.f.0.f.6.6.2.E.E.X./ a ^ ( W X.5.@.[ U H m V H q X.<.6.X.=.X.:.l.",
"0.6.0.6.0.6.f.z.X.[ N > / _  .<.5.@./ V L V + x 0.f.6.v.6.z.0.6.f.2.f.6.6.k.6.B.5.[ L i [ O.' / H v L V K P 8 ~ ;.6.,.,.X.;.z.p.",
"0.0.2.k.6.6.p.6.6.W ` : % f / { L V S B t * $ ) k.z.2.f.2.h.6.f.f.0.0.0.6.0.0.f.A.X.O.g 2 z T W C v g i 4 4 $ ) #.6.=.o.6.z.0.0.",
"1.0.v.f.p.6.6.z.[ U T @ * > 6 c v i 6 > 0 , 3 -.6.f.f.2.z.6.f.0.2.6.0.6.f.z.6.,.@.6./ n + # = j c s i q 7 - & Y @.6.<.1.f.6.6.6.",
"0.0.f.6.k.6.z.,.V J a g [ #.T G b j K [ [ @.q C ,.I.6.6.6.f.6.0.6.6.6.0.f.y.5.#.;.[ V g + i @.#.#.,.,.5.;.) 0 A ,.X.B.6.6.6.6.z.",
"z.0.1.k.y.6.6.U C l c ,.7.;.[ [ / ;.z.M.B.@.J q [ y.y.6.0.6.0.0.z.0.0.k.0.,.#.#.@.L J > p 5.;.k.I.k.0.y.I.;./ a [ / 0.K.6.z.0.6.",
"6.0.6.z.6.;.[ V J d O.<.6.p.5.,.1.^.I.6.!.5.[ g b #.0.z.p.0.0.0.0.0.0.0.1.@.@.#.[ V N = ^ 5.B.<.+.#.&.<.y.(. .V N [ [ ^.6.6.k.0.",
"0.z.0.,.;.#.H H f j ;.6.#.X. .5.z.6.6.6.6.`.#.E i T ,.E.6.l.6.6.6.f.6.,.@.@.#.#.P J r , ;.M.,. .&.#.6.y.0.6.).#.g / ( 5.K.6.6.z.",
"z.6.<.#.@./ V V q [ 5.y.@.#.,.,.f.6.f.D.6.<.E.X.V c  .<.v.6.k.6.f.6.,.#.#.#.@.' V L > H 5.Y.&.@.#.1.6.k.6.z.6.H.U b [ @.I.D.6.2.",
"1.=.#.5. .N H e v ;.5.=.X.X.5.k.f.f.1.6.y.6.E.#.] a J  .p.v.H.0.6.,.@.#.,.=./ G K 6 n 4.I.,.X.;.;.y.0.6.6.6.6.H.q.c L [ @.T.Q.d.",
"6.,.=.U b H v 3  .#.y.#.@.=.k.6.f.0.0.6.6.k.k.,.[ L 6 ~ _ #.#.<.;.#.@.#._ T N L i g 6.Q.,.@.@.,.6.6.6.6.6.f.0.6.I./ g [ E ( 6.E.",
"/ P v C L L - l <.<.<.#.;.1.z.6.0.2.0.z.6.6.y.6.E =.f , { T v F V H V b V S A r q ;.K.,.#.@.;.5.0.0.0.6.6.6.6.6.K.4.V z } O.( [ ",
"~ V A z 3 - + ! 1.B.,.X.1.0.0.6.0.6.0.0.0.0.6.,.( ] ] > 3 z g z n n A S A r 5 # P N.,.#.1.@.=.k.0.0.0.0.6.6.0.k.y.=./ f p S / ] ",
"i q - 6 7 + 4 } 5.y.#.,.8.0.f.0.6.z.6.6.N.6.@.#.#.T Y 4 $ - @ + $ $ $ & @ O . 2  .6.*.#.#.;.6.k.0.0.0.0.0.f.0.6.,.;.} f O 3 , 6 ",
"A T O.=.;.W q ` N.,. .k.0.6.0.6.6.6.0.k.6.#.@.;.O.U b , ~ [ Y S V T U T / ( l $ U 6.<.o.@.0.D.6.0.0.0.6.0.f.6.=.X.@.^ g P %.T V ",
"5.6.6.0.6.' J g ;.y.1.0.k.6.6.k.0.6.k.6.#.;.,.X.K F = F 6.@. .;.5.,.#.#.;.;.@.q a 5.,.#.0.0.6.6.6.0.0.6.0.0.<.@.,.U b g 6.M.6.@.",
"q.6.0.k.).,.( K L 6.B.6.p.f.6.z.0.f.6.;.@.#.X.U H 6 i 1.X.k.B.6.z.k.H.H.6.[  .W 6 [ y.5.6.6.6.k.0.6.6.0.6.<.:.=./ V q F I.#.,.q.",
"@.,.6.<.p.^.[ ( N T 6.I.2.6.v.6.6.k.,.@.;.W b H i > @.=.E.,.:.@.0.6.0.2.z.k.T  .z b 5.B.6.k.k.6.k.6.6.0.1.@.o.:.I V , [ y.,.@.=.",
",.f.0.0.6.k.B./ T c ' 6.H.6.f.6.0.6. .=. .b J m O ~ #.6.6.| ,.k.6.6.6.6.0.v.,.W ( i [ K.y.f.,.k.f.6.v.1.=.@.;.T S i 8 ,.5.1.#.=.",
"0.0.6.z.6.6.z.;.[ k F  .1.Q.6.z.<. .,.#./ V H ; g #.X.E.@.#.6.6.0.6.0.6.6.k.0.=. .N v ;.D.f.v.0.0.6.0.#. .;.[ J S $ K #.0.,.[ ,.",
"z.6.6.k.0.6.k.N.[ / 6 / / ,.E.,.#.#.#.#.J N v , [ =.5.6.X.6.y.y.0.6.0.0.6.6.z.D.X./ g T ,.H.,.k.6.5.#.@.,. .F H q a ;.#.I.#.6.1.",
"0.6.f.6.6.0.6.N.O. .c d [ / #.N.4.,.,.;.L L 6 L ,.,.k.X.,.0.6.y.6.6.0.f.6.6.0.D.,./ r c ( 6.E.N.6.6.#.@. .V V m 6  .#.B.5.X.6.k.",
"6.6.z.6.6.y.1.6.;.( ( 6 N [ / [ @.#.%.L N v l #.<.k.#.=.5.0.0.6.6.0.0.f.f.0.0.0.,.H e - ( @.#.#.@.[ [ / H H U e T ;.y.6.#.1.1.z.",
"f.6.0.6.k.0.,.1.[ / } n $ T [ V b m b H l $ ^ 5.k.,.X.6.6.y.0.6.0.f.6.6.k.f.1.,. .V l . i T k V V N F H N H g l 6.N.y.X.6.f.k.0.",
"0.6.0.f.y.6.@. .G F Y r + $ , i d v c 7 @ O U ,.v. .,.6.6.k.0.f.6.0.6.6.0.6.=.=./ H t # - H / F g g v v g r = n <.).( 1.z.6.6.l.",
"6.6.f.0.5.#.( J V H e e L ~ / [ @.%.) / ! , N ,.6.,.6.y.5.6.f.6.6.6.6.6.0.,.@.@./ A e # ! ;.@.X.( ^ [ [ O.O.A r X.k.6.2.6.6.z.6.",
"0.0.6.6.,.W V b D l , @.<.2.6.y.y.z.6.o.[ / g [ #.E.0.2.v.f.6.q.z.2.6.v.,.X.#.;.E V @ e 4.+.<.k.B.I.I.Z.N.0. .V f ;.F.6.f.k.6.0.",
"0.0.0.@.T m V L l $ L ,.6.I.,.#.#.<.D.I.k. .T g [ @.Q.f.v.6.6.z.6.z.0.2.o.#.#.( L 0 + J %.U.Z.6.<.6.<.<.B.K.,./ f V 5.H.p.6.6.0.",
"6.0.@.#.K N L p o p #.1.z. .X.#.#.6.6.6.K.#.[ N N [  .0.6.6.f.6.6.0.1.@.@.#.E H Z + > #.U.p.X.@.#. .@.<.6.N.k.@.T q T 6.E.6.6.0.",
"f.2.X.X.N A g $ e [ 4.D.@.@.X.#.,.z.6.1.B.6.( ' e L ( ( (.k.6.d.k.,.;.@.;.[ m H w . V z.l. .#.#.=.#.5.k.6.k.D.6.{ g v @.D.0.1.z.",
",.| ,.[ V ~ 3 r %.4.K.;.@.#.,.X.5.6.z.z.6.N.X.' J 6 [ / ;.y.0.f.y.,.,.#.#.U H v . f 5.v.o.o.;.#.@.q.0.6.v.f.6.T.O.( g  .,.E.0.6.",
"<.1.z.[ V d = } ;.K.#.#.#.#.X.=.6.6.0.p.1.0.6.' #.i q O.( y.N.1.,.;.@.#.[ L H = 0 ;.B.,.#.@. .@.,.0.6.2.f.6.6.D.4.[ N / ;.y.Q.2.",
"<. .J N J e c ;.5.,.#.@.@.,.@.,.6.z.6.p.l.f.D.;./ [ @ z } [  . .( _ ( ( / H r > @.5.6.#.=.X.,.6.z.0.f.0.6.6.k.0.z./ ( L @.[ 6.6.",
"J m J J L 6 U @.6.1.#.#.@.@.@.6.z.0.6.f.6.6.z.0.' [ p + 4 q g b U U / T W V $ ! | 6.6.O.;.O.,.p.0.z.0.6.0.6.6.6.Q.' [ b ( O._ [ ",
"c a 0 3 > O V { ;.5.=.@.#.#.,.6.k.6.v.2.0.0.1.2.[ [ v O 3 p b 6 * > 9 g h z * ~ / 5.,. .:.6.6.f.f.2.z.2.6.0.6.6.B.#.[ J @ i v S ",
"K H A A p 0 3 [ ( y.X.#.#.#.,.z.6.f.1.z.k.f.:.1.#.[ v = $.;.;.@./ [ =.@.;.%.V z  .@.D.X.:.6.f.6.6.H.,.f.d.0.0.6.y.E K z r A H P ",
"5.N.,.[ O.#.B d ' #.5.X.#.,.6.z.6.f.6.z.0.,.,.=.( L , P ;.,.!.:./ ;.#.#.,./ [ F U [ ,.z.6.6.z.0.f.6.0.6.0.z.<.#.E V v c ,.;.;.<.",
"I.k.B.6. .W ' y g =.;.@.#.,.6.0.f.6.z.f.5.#.;.T m c u #.5.z.<.!.B.I.!.T._.6.[ E k T [ B.K.6.0.0.0.6.f.0.0.,.;.T b V g ;.#.6.E.J.",
" .o.:.Q.^.N.[ / , N ,.;.#.1.z.6.0.6.6.y.;.=.E b L q  .=.z.,...=.k.B.B.6.z.^.1.[ V f [  .I.0.6.6.0.k.0.z.<.;.W H J q O. .N.I.2.#.",
"@.,.6.f.6.^.5.( V - @.6.#.6.z.0.0.k.5.,.#./ V H v S @.;.^. .=.@.,.k.0.8.6.0.(.[ ~ = N / N.N.6.6.y.f.k.,.;.X.N C q / ;.z.H.#.#.#.",
";.0.6.6.h.k.Q. .{ b a 6.y.0.2.k.0.0.6.#.[ m V J g O.X.0.1.#.X.5.z.6.f.6.6.0.Q.,.] 3 - [ ;.B.k.6.6.k.:.=.#.V J p V ,.,.T. . .=.@.",
"q.q.6.v.6.,.).6.] ~ q =.k.0.0.1.0.1.#.4.U N L l V ;.,.H.#.#.,.q.6.k.6.k.6.,.l.B.} n @ / / K.z.6.y.:.@.5.U m A 7 @.#.).#.=.=.#.1."
};
