/* XPM */
static char *bbcab97b3d904509fced8b9087f2b581WHI0RfiMUQMo3Ha5[] = {
/* columns rows colors chars-per-pixel */
"64 64 176 2 ",
"   c #2B2724",
".  c #2D2B26",
"X  c #2E2D2A",
"o  c #332E27",
"O  c #322E2A",
"+  c #2F312F",
"@  c #34322E",
"#  c #3A342E",
"$  c #2E2F31",
"%  c #2F3232",
"&  c #353432",
"*  c #3A3632",
"=  c #3C3935",
"-  c #393738",
";  c #363A39",
":  c #3D3C39",
">  c #403730",
",  c #423C35",
"<  c #423D39",
"1  c #3F403A",
"2  c #45413D",
"3  c #4B443C",
"4  c #4C483F",
"5  c #3B3F40",
"6  c #464542",
"7  c #4B4642",
"8  c #4D4944",
"9  c #4E4C49",
"0  c #514742",
"q  c #524B45",
"w  c #594F46",
"e  c #534E4A",
"r  c #55514C",
"t  c #5B544D",
"y  c #565652",
"u  c #5B5652",
"i  c #5D5954",
"p  c #5E5C59",
"a  c #61544B",
"s  c #605750",
"d  c #615B55",
"f  c #695E55",
"g  c #645E59",
"h  c #685F58",
"j  c #636057",
"k  c #65625B",
"l  c #6B645C",
"z  c #70675E",
"x  c #666561",
"c  c #6B6661",
"v  c #6D6963",
"b  c #6F6B68",
"n  c #736B64",
"m  c #796F66",
"M  c #736D69",
"N  c #786F68",
"B  c #767067",
"V  c #74716B",
"C  c #7B736C",
"Z  c #7F796D",
"A  c #757472",
"S  c #7C7671",
"D  c #7E7973",
"F  c #7E7D7B",
"G  c #80756D",
"H  c #81786F",
"J  c #837B74",
"K  c #897E76",
"L  c #837E79",
"P  c #887F78",
"I  c #848077",
"U  c #8A8177",
"Y  c #87807A",
"T  c #8B837C",
"R  c #91867D",
"E  c #92897F",
"W  c #858180",
"Q  c #8C8681",
"!  c #8E8882",
"~  c #8D8B8C",
"^  c #918781",
"/  c #948B84",
"(  c #9A8E85",
")  c #948E89",
"_  c #998F89",
"`  c #9C9186",
"'  c #959188",
"]  c #9C938C",
"[  c #9D9792",
"{  c #9F9891",
"}  c #A2958C",
"|  c #A6998E",
" . c #AA9A8E",
".. c #A19790",
"X. c #A49B93",
"o. c #AB9D94",
"O. c #A49F99",
"+. c #AA9F9A",
"@. c #B09F96",
"#. c #B09F98",
"$. c #A6A097",
"%. c #ADA196",
"&. c #A7A098",
"*. c #ADA39A",
"=. c #B1A296",
"-. c #B3A59C",
";. c #B8A79C",
":. c #B5A99E",
">. c #BAAA9E",
",. c #A9A4A0",
"<. c #AFA8A2",
"1. c #B2A7A0",
"2. c #B5AAA2",
"3. c #BBADA3",
"4. c #B7AEA9",
"5. c #B9AFA9",
"6. c #B6B0A4",
"7. c #BCB0A2",
"8. c #BAB0A7",
"9. c #BEB0A5",
"0. c #BDB0A7",
"q. c #BFB1A6",
"w. c #BEB0A7",
"e. c #BCB0A4",
"r. c #BEB1A6",
"t. c #BEB1A8",
"y. c #BEB6AB",
"u. c #BFB2AC",
"i. c #BEB2A9",
"p. c #BDB6B0",
"a. c #BFB8B2",
"s. c #C0AEA2",
"d. c #C0AFA4",
"f. c #C0AFA8",
"g. c #C0B0A3",
"h. c #C1B0A6",
"j. c #C0B2A7",
"k. c #C4B2A6",
"l. c #C2B4A7",
"z. c #C4B4A5",
"x. c #C1B2A6",
"c. c #C8B7A7",
"v. c #C1B3A8",
"b. c #C3B2A8",
"n. c #C0B3AA",
"m. c #C2B4A9",
"M. c #C1B4AB",
"N. c #C3B5AA",
"B. c #C3B7AB",
"V. c #C6B5AB",
"C. c #C5B7AB",
"Z. c #C6B4A8",
"A. c #C1B4AC",
"S. c #C4B6AD",
"D. c #C5B7AF",
"F. c #C7B6AE",
"G. c #C3B5AA",
"H. c #C8B6A8",
"J. c #C9B7AA",
"K. c #C5B9AD",
"L. c #C5B8AF",
"P. c #C6B9AE",
"I. c #C8BAAF",
"U. c #C8BAAD",
"Y. c #C0B7B0",
"T. c #C7B8B1",
"R. c #C6BAB1",
"E. c #C9BBB0",
"W. c #CABCB1",
"Q. c #CCBEB3",
"!. c #CEBDB5",
"~. c #CABCB2",
"^. c #CEC0B5",
"/. c #CCC2B7",
"(. c #CCC2B9",
"). c #D0C2B7",
/* pixels */
"R 3.*.-.:.2.*.:.*.-.o.:.:.:.3.*.2.T q 3.q.z.k.!.Q.Q.~.I.M.3.3.h.3.h.L.o.>.L.P * J u.:.:.-.2.-.:.*.-.-.-.2.:.2.3.3.2.-. .2.-.*.r ",
"C o.:.2.o.-.2.:.:.-.X.-.*.-.:.-.4.S 3 4.V.H.g.S.^.M.3.0.M.h.0.0.s.3.:.o.3.M.T @ n S.-.=.2.2.o.:.-.-.2.:.| *.2.-.2.2.3.:.-.4.*.8 ",
"f | 2.2.3.0.3.2.3.1.*.-.o.*.-.2.[ d = 1.V.V.3.8.:.o.| -.n.M.3.3.h.V.3.3.l.0.] < d *.;.o.X.*.3.-.0.*.*.2.-.-.2.2.1.3.0.S.3.8.T @ ",
"7 Y ..] ] / T T D V j t 4 8 7 8 7 & < 4.S.3.3.y.| } | -.0.M.M.h.>.n.3.0.>.%.) 2 2 ) 8.3.3.*.&.*.o.*.4.*.1.*.*.} [ ../ / ) T e @ ",
"& & # * = = = & X 1 8 d v C C V 8 = & ] f.>.:.:.%.*.*.-.:.3.M.n.n.0.i.n.0.3.] 8 * e v l g e 2 4 0 q y e 7 2 , < = 2 , & < * . = ",
") Q J C d : X ; u ^ o.3.S.T.S.3.1.Y < J n.3.3.:.-.:.-.-.-.:.2.:.2.:.2.:.>.3.] 7 X 8 Y ) ! ] ] T S 8 . X * r t g c n S J D J Q ) ",
"8.~.M.S.2.T 6 + l -.3.3.>.3.S.S.0.+.8 v 3.-.:.2.-.:.:.2.:.-.-.-.=.:.2.-.-.:._ 2 2 o.(.S.S.L.M.Q./.&.l , L a.S.i.T.S.L.L.3.y.T.i.",
"3.k.>.k.h.3.M X l 2.3.3.l.q.0.*.;.2.3 y :.-.:.-.-.-.-.-.*.X.o.:.;.0.:.-.-.:.] : m h.>.;.3.d.3.>.:.M.Y > X.S.>.h.3.z.3.0.3.q.>.g.",
"h.3.h.M.J.I.Z . C 3.} -.V.>.S.:.2.*.= u X.o.-.2.:.:.:.-.o.X.%.-.h.3.-.-.:.:.] 2 U V.>.>.q.>.l.>.:.~.V < ] 3.3.h.h.3.3.0.h.0.0.0.",
"3.3.i.3.h.Q.P O J S.2.i.T.3.M.0.T./ & c o.-.-.o.:.*.*.:.-.o.-.i.3.-.o.o.*.-.] 3 K L.0.0.M.y.0.2.3.T.N q 3.L.3.:.o.3.n.3.2.0.n.0.",
"-.3.i.3.3.~.Y X J 4.:.2.3.2.3.8.3.E # C 3.-.` X.*.:.3.3.i.i.i.i.1.-.*.1.2.1.[ 8 C 8.2.n.i.:.&.3.3.3.l s L.0.3.0.:.0.n.3.h.L.n.-.",
"2.3.n.M.h.S.Y & ^ 2.o.o.:.:.-.-.3.R # D -.o.%.o.:.3.0.2.:.2.:.o.-.-.2.-.X...) r n S.-.*.*.-.*.2.-.3.n C T.:.:.3.3.h.L.S.n.0.3.2.",
"3.3.2.>.-.3.Y & T :. .@.2.>.3.-.0./ @ l o.2.:.-.3.:.-.-.-.=.:.3.>.=.-.:.2.-.] r l 3.X.=.>.:.-.@.o.3.n P 3.:.:.1.:.:.2.3.3.2.2.3.",
"-.:.-.-.%.3.T & J 3.2.0.3.=.-.*.:.J O = J o.| 8.3.3.3.3.2.:.-.-.;.-.:.:.-.] C : n 8.-.2.:.2.3.2.1.*.d / 2.-.o.*.-.-.*.-.:.2.2.-.",
":.:.-.>.:.0.! & l ] *.*.*.o.*.1.<.v : @ = u l C Z J Y T ! ) ) / T T T C d 6 : + 8 ] *.o.] ] ! C d e O Q 3.=.o.:.-.2.3.:.*.*.-.-.",
"3.-.o.:.-.-.Y & @ r k i r t 8 y r & $ : 6 2 8 8 e 2 * & & & : 7 e 7 : & = * : ; * 2 q y 8 : . & & & & Q 2.-.-.:.-.-.-.-.:.:.:.-.",
"*.} -.:.*.*.J : D T / ) Q D N M l l C ( X.%.2.8.:.} / 7 & e ] :.3.2.o.o.-.-.X.f O i | %.X.E E ( ..l   V 5.*.2.:.-.-.o.-.-.%.2.-.",
"-.%.-.:.:.3.C 3 =.g.c.H.H.z.g.s.3.i.3.:.3.M.M.3.I.3.2.S O L Y.l.i.S.i.S.0.3.S.] 2 P Q.h.n.L.S.:.h.*.= 7 *.2.-.:.:.o.} %.:.:.2.:.",
"-.3.-.-.2.*.u k L.2.=.:.n.0.3.0.3.S.3.-.2.n.M.S.;.Z.Q._ O T T.>.M.L.h.M.-.=.h.-.: Y L.2.3.0.:.| =.S.u O Y o.:.-.-.-.-.:.:.-.-.-.",
"$.3.-.2.8./ < W i.+...*.8.3.3.i.3.3.3.3.n.3.:.:.@.;.3.] , P S.%.:.0.M.).M.0.M.:.6 I M.>.n.0.2.3.V.3.c O 0 Z ..1.-.3.2.-.:.3.*.*.",
"x k v C J d < ~ :.3.3.>.;.-.=.=.3.2.2.2.-.2.3.:.2.:.-.o.= B L.>.3.0.3.V.3.M.L.3.6 T 0.o.:.i.i.V.M.8.Q * . # 2 n J Y T Y J S M c ",
"* X < < * o @ r n G K T / | *.1.:.*.*.X./ ^ ] ] X.o...T < l y.h.0.M.M.L.0.h.h.:.8 / L.=.3.0.q.0.q.i.~ & r V r 7 0 8 0 4 , * @ O ",
"O c &.3.*.] U n r 8 2 2 7 8 9 e w q 2 = < < = < < 3 3 = @ n :.:.3.2.2.-.*.-.3.2.8 T I.h.I.M.0.h.g.Q.[ = P ~.S.*.*.&.X.-.*.] A 2 ",
", [ T.0.l.V.L.L.L.C.3.%.o.o.X.} ] ! r & p F A v c c B v @ L 1.3.:.-.:.-.-.o.-.*.e T L.3.M.M.3.>.=.I.] 4 o.h.3.S.y.0.:.3.S.Q.1.l ",
"8 *.i.:.:.8.3.S.M.V.V.n.h.M.M.M.V.0.C 4 o.M.V.S.L.0.h.-.7 Y 2.=.-.*.2.*.*.1.-.2.u H S.g.Z.0.h.>.n.L.o.a o.3.3.3.8.:.3.8.8.3.8.Z ",
"3 *.Q.:.o.3.0.3.-.3.h.V.V.h.0.n.h.S.n d S.2.2.S.2.h.0.i.e v i.-. .-.=.=.3.=. .3.i C S.h.0.3.0.3.0.Q.} w :.:.3.-.@.:.d.3.=.#.3.K ",
"q *.*.o.:.-.-.X.| -.-.-.:.:.=.%.*.*.t C y.0.h.3.X.n.V.R.y 7 { -.:.M.0.:.3.3.-.| 6 l i.2.:.3.3.3.3.0.] 8 o.4.*.8.2.2.3.3.2.3.i.Y ",
"2 *.u.2.M.i.3.-.*.8.y.i.3.1.-.3.5.O.= T L.;. .z.3.0.0.Y.i . < q p k b A M c d < @ l 8.-.*.:.*.| -.:.Y = A O.C r j k l l k l V r ",
"* M ..] ] $...*.O.) P J S N N D n r O ) S.h.h.I.h.-.:.8.r : e t y d i r 7 7 8 = X v 3.-.:.*.*.| -.:.J 2 * 2 t d k k k l d r q @ ",
"l q 3 0 3 & 2 6 O # < 0 t d r 2 O @ & S y.n.0.0.2.-.:.y.8 g p.i.n.Q.Q.0.:.h.0.} - c :.-.3.1.:.:.-.:.) & O D y.Q.A.3.2.n.S.i.2.] ",
"3.3.o.*.] r & & l Y o.&.o.-.-.} B 2 @ g *.-.0.S.S.0.3.3.0 l (.>.h.;.>.k.g.3.>.3.r l 2.%.-.3.-.:.>.%.*.8 2 *.i.3.V.V.h.3.-.:.n.S.",
"V.h.U.h.(.D o F :.-.3.S.0.h.M.:.y.A O 0 } 3.-.1.:.3.3.*.q d 3.>.*.L.T.3.y.*.] S.i d 2.X.o.S.:.-.=.3.1.d 7 8.l.>.*.3.l.l.q.q.0.i.",
"2.3.3.h.Y.S > ] i.0.3.M.i.3.n.i.S.S X 7 ] 3.o.*.-.3.o.*.r u S.3.d.V.3.3.h.h.U.V.k t 1.2.-.2.S.-.2.*.1.J q *.n.%.%.0.L.0.3.M.0.:.",
"X.-.3.0.i.D > o.S.3.:.n.~.n.:.o.:.n X 7 ..-.o.i.3.=.X.1.e q T.3.3.i.0.n.0.2.3.n.B 0 4.*.-.2.2.3.o.-.3.J q *.3.>.-.:.3.3.0.M.3.-.",
"2.:.;.3.3.C = *.n.:.X.:.S.0.-.| n.d . r o.=.3.3.:.-.%.8.l e 2.-.-.:.2.-.o.%.-.3.J 0 1.-.:.X.-.2.-.2.8.D q *.%.2.2.2.>.:.:.-.:.3.",
"-.:.=.=.4.C 8 *.S.3.*.2.S.n.0.3.0.t X p *.;.d.2.:.3.2.*.d 3 o.:.-.-.i.3.:.-.*.2.S 3 ..-.-.| 3.n.-.-.-.k 3 &.:.2.:.%.o.-.:.:.:.-.",
"2.-.| -.4.d 7 1.i.0.3.S.S.3.3.n.h.C @ u 1.n.=.-.*.*.8.*.e = ..3.-.| -.3.2.-.%.2.v * ..3.*.2.-.-.2.2.1.q # ) 8.-.-.-.%.%.-.-.:.-.",
"3.2.:.8.,.9 < ..T.S.S.L.n.3.n.n.3.Y & 9 / *.X.*.*.X...P 2 @ T y.3.2.i.i.3.M.2.X.8 & J 1.*.5.4.*.*.o.X.r * v *.1.1.4.4.1.*.*.*.1.",
"s l f q 2 & O D n.2.2.:.o.o.3.2.V./ - X = 3 3 3 = # > # O X 7 l Z Y T Y Y Q Z 0 - * & q 7 3 0 3 4 < 2 @ @ 2 D ) ! S g e 0 q t i ",
"P J J S x y X c 3.-.-.-.} X.3.:.2.Q - 6 D ] ] Q A l n M A A i 3 : * & 2 9 y r & & - & 7 g n C T Y D k y r = 8 4 7 8 r d c n C J ",
":.3.L.2.S.o.e k 2.-.-.2.:.-.-.-.-.) # ) Q.V.L.L.L.Q.M.3.3.S.S.n.-.%.-.*.*.3.] d & & n X.:.V.M.^.Q.L.0.-.X.X.o.-.-.2.h.V.L.L.L.M.",
"| :.;.I.S.3.v e 2.-.-.-.:.2.2.-.i.T , *.i.3.>.-.M.0.3.h.n.3.3.0.V.3.M.L.0.0.:.] 6 8 ] i.d.n.=.o.-.0.L.L.L.Q.L.n.3.=.%.3.S.0.-.o.",
"3.S.3.V.M.i.g i -.-.2.2.2.2.-.o.2./ 3 *.i.3.o.:.h.M.h.0.0.h.h.0.>.%.-.Z.M.n.M.n.x 8 &.~.3.2.%.-.V.I.L.n.h.V.V.0.3.3.0.h.M.S.V.n.",
"n.3.h.-.3.4.r u -.-.:.:.-.-.:.2.3.) # / 2.0.=.3.q.M.n.2.:.3.3.2.=.o.o.-.2.2.:.-.D 3 &.~.3.3.2.n.M.h.0.0.3.3.3.h.3.0.3.>.3.M.M.3.",
"2.:.:.-.-.1.g e :.-.-.-.o.X.*.:.2./ < Q 2.-.-.:.-.=.:.3.2.*.%.-.2.2.3.2.2.-.-.2.J , ] 2.=.:.:.-.:.-.-.-.%.X. .o.:.-.2.3.3.:.-.:.",
"o.*.-.-.*.*.e k 2.-.-.-.o.%.-.-.-.T = V *.-.-.2.o.-.:.3.3.2.2.4.1.1.2.:.-.*.-.2.M # Y &.*.:.:.-.-.-.-.-.*.-.:.2.-.2.3.3.2.2.3.i.",
"o.-.2.3.3.] < V *.:.2.:.*.2.4.:.+.D @ 7 Q 1.:.5.3.0.3.3.1.1.*.o.*.*.*.1.2.3.4.-.c < P *.6.3.3.4.1.2.2.2.1.:.:.:.2.3.:.%.-.3.3.*.",
"2.:.` E / d @ 7 n T } ] R J n t 0 2 & & * n J T E U J J C h q 4 3 e d l n G Z z 2 . r d l n Z C Z m N J Y R ` o.o.-.:.:.-.*.-.:.",
"6 2 : : @ % ; : r r 2 : = @ & & & = : < < & = : = & & @ X 9 t q r 2 < = @ X @ & < 7 8 r r 0 0 7 < < = @ % ; & : 7 e y y r 9 9 8 ",
"l n D J v 7 X x 3.2.X.) ! / ] ' ] ] ] ] ] ......o.] d @ r 2.y.2.3.4.1.o.] ] ] ] *.*.*.:.4.3.1.*.X._ Z v 7 @ r l v C Z C C C n l ",
"0.M.T.i.-.J o C V.h.V.M.0.M.M.0.0.3.0.-.:.n.h.M.I.L.) 3 l 8.>.z.0.h.n.M.0.3.3.S.n.0.3.h.S.M.3.-.n.:.( / 0 8 *.L.n.n.S.T.S.3.3.0.",
"M.0.3.3.n.*.3 c J.-.>.z.h.z.h.V.V.h.V.>.>.z.3.h.>.L.3.0 J T.3.;.V.g.3.n.h.o.o.3.h.h.h.V.V.3.>.=.h.3.2.&., v (.g.=.:.d.V.h.>.2.Z.",
"-.o.=.h.n.i.g g ~.-.-.3.2.3.3.3.0.3.S.n.h.h.-.:.3.0.i.e C 3.%.` -.3.2.:.3.3.3.i.3.n.i.S.S.n.n.3.2.3.3...= T S.%.} -.3.3.3.n.i.2.",
"*.-.:.h.:.u.V y 1.*.*.-.-.2.-.X.2.-.2.2.:.-.o.*.2.4.4.g c *.:.-.2.3.2.*.-.2.2.-.:.-.o.*.-.2.3.3.3.3.1.] 7 [ *.:.-.2.2.-.2.3.2.-.",
"*.:.-.>.%.1.V y 4.5.4.1.2.2.4.:.2.2.2.:.2.2.2.2.2.3.*.r 0 X.8.3.2.-.*.-.-.*.*.*.:.-.X.o.-.-.2.:.-.2.:...u X.2.3.i.2.*.*.*.%.*.-.",
"3.2.=.-. .U , : l m m C G C K R R E / ( ] } } ( ( ( T 2 @ l ` -.-.o.%.:.2.:.2.2.-.:.:.>.2.:.>.-.2.:.%.R , T n.>.0.h.0.3.:.:.2.3.",
"V v i e 7 @ . & & & * 2 2 : : @ * & 5 : @ 2 3 2 6 2 & & * X * 6 e y u i d d v F ) X.X.] ] / ) ) Q C p 7 * < y v C Y T ) P Y I B ",
". = 7 q 0 d P ) ] ] ..o.] X...C 7 & @ e J ( ] ..{ ] T Y J v k i r e e t e 3 O = 2 2 2 # 3 0 q 0 , # O O @ & # @ O O O # @ & & & ",
"0 ) 1.2.4.4.y.5.Q.n.3.0.M.M.M.:.T 7 @ Y n.Z.S.~.M.M.0.L.L.L.S.2.%.&.*.4.*./ 8 @ O 8 C T o.o.&.*.o.] ^ Y T _ ..o.[ T B d 8 & @ : ",
"G M.M.:.h.3.n.M.;.o. .>.V.>.>.V.3.i # *.L.3.d.3.g.g.h.l.q.h.M.q.V.M.S.M.n.3.C & 7 o.(.y.M.~.L.0.M.L.L.M.3.i.L.T.T.T.L.8...A 6 & ",
"} h.3.h.V.>.h.3.2.%.>.M.0.h.V.0.y.C , :.3.g.V.d.h.3.h.M.3.3.h.h.g.h.h.>.3.M.] < d Y.y.0.3.3.3.V.3.3.3.>.>.3.d.3.:.3.3.V.M.1.M & ",
"} n.2.:.l.z.V.h.L.i.i.3.3.0.:.*.y.) 4 1.y.q.-.3.0.3.V.S.n.3.-.-.;.3.L.V.z.0...< s (.3.3.0.z.:.-.h.g.h.h.h.h.d.>.-.s.s.H.J.T.T & ",
"/ S.3.| :.h.3.3.3.i.3.2.S.3.| X.2.) 0 *.M.=.} -.3.0.V.0.0.3.-.*.-.2.i.3.z.n.] 6 m Q.3.V.M.:.%.:.V.h.h.0.3.3.0.0.2.3.k.g.h.n.o.7 ",
"( -.4.-.:.2.2.-.:.-.:.-.-.3.:.-.2.( t *.i.:.:.3.l.~.Q.3.3.M.3.M.3.S.i.:.V.Q./ : G S.3.>.>.0.n.S.3.:.:.q.0.0.i.0.S.3.h.>.0.3.1.8 "
};
